<?xml version="1.0" encoding="UTF-8"?>
<svg width="512px" height="464px" viewBox="0 0 512 464" version="1.1" xmlns="http://www.w3.org/2000/svg" xmlns:xlink="http://www.w3.org/1999/xlink">
    <!-- Generator: Sketch 64 (93537) - https://sketch.com -->
    <title>Group 16</title>
    <desc>Created with Sketch.</desc>
    <defs>
        <polygon id="path-1" points="0 0.727384514 511.785675 0.727384514 511.785675 463.999851 0 463.999851"></polygon>
    </defs>
    <g id="Home" stroke="none" stroke-width="1" fill="none" fill-rule="evenodd">
        <g id="1" transform="translate(-704.000000, -323.000000)">
            <g id="Group-16" transform="translate(704.000000, 323.000000)">
                <g id="Group-3">
                    <mask id="mask-2" fill="white">
                        <use xlink:href="#path-1"></use>
                    </mask>
                    <g id="Clip-2"></g>
                    <path d="M496.32598,235.154414 C496.265579,219.687076 495.117955,205.875873 492.360639,192.233911 C489.542922,178.368309 484.849746,165.188735 477.269391,153.145487 C468.707517,139.521657 457.267524,128.786998 443.574564,120.581874 C433.427157,114.501318 422.908283,109.043324 412.504171,103.410046 C404.241282,98.94936 397.364602,93.0471107 392.269758,85.0958472 C387.105453,77.0448528 381.980408,68.9575927 376.550338,61.0758385 C368.236108,49.0114355 357.992059,38.9174711 345.226259,31.5404151 C331.282635,23.4894208 316.094745,19.3762814 300.236402,17.5297508 C279.53992,15.1029683 258.94914,16.1123647 238.539564,20.1318176 C186.449542,30.3527121 143.70963,56.3008493 110.147686,97.3597117 C97.0436387,113.386147 86.5761053,131.159382 76.7367446,149.30434 C64.6685786,171.532217 51.3893678,192.995491 37.0863562,213.836203 C31.0703935,222.573224 25.1993938,231.440198 20.844465,241.171505 C18.9418262,245.462951 17.4529359,249.908526 17.3019328,254.610984 C17.0875084,261.389655 19.8055638,267.279816 23.4477581,272.78012 C29.1526544,281.432521 36.3041602,288.839799 43.3469438,296.374006 C56.9100404,310.871236 70.6120598,325.250602 83.9305313,339.989603 C94.7423518,351.957297 104.886739,364.538487 115.674399,376.536403 C134.715887,397.73675 156.738176,415.177549 182.354338,427.861492 C203.51591,438.32718 225.574439,445.816056 249.339304,447.363394 C274.088709,448.962109 296.355623,442.367788 315.665896,426.70401 C323.18283,420.641587 330.131991,413.850828 337.289537,407.344149 C341.768289,403.282386 346.313481,399.238756 352.278103,397.65213 C356.989399,396.376785 361.845658,395.479208 366.695877,394.865713 C378.250632,393.406017 389.868809,392.372443 401.239341,389.673667 C417.8678,385.741857 432.959048,378.733502 445.884911,367.370237 C456.711832,357.85048 465.143844,346.453971 471.79704,333.730741 C488.202014,302.375986 496.150816,268.923863 496.32598,235.154414 M511.785675,238.78401 C511.53199,275.44263 501.300021,314.742604 479.866644,350.953945 C470.238688,367.228196 457.811135,380.994067 441.708166,391.187762 C428.296073,399.67999 413.585353,404.769282 398.074317,407.643342 C389.998672,409.142326 381.880746,410.559712 373.7296,411.532842 C362.90872,412.820276 354.038799,417.667797 346.102077,424.89979 C336.637204,433.52197 326.973007,441.926555 315.964882,448.620606 C301.335704,457.538956 285.489441,462.543628 268.407973,463.70111 C248.14638,465.088274 228.573361,461.528188 209.389929,455.438565 C166.547336,441.838913 130.696185,417.652686 101.52239,383.565912 C91.7947717,372.187536 82.5503632,360.407215 73.1428714,348.756846 C59.144886,331.427866 43.7576722,315.359121 28.3100572,299.329664 C20.0199882,290.713528 11.7268991,282.076238 5.19148585,271.985296 C2.90529924,268.464497 1.00266044,264.73517 0.289925912,260.561587 C-0.531530838,255.828908 0.477169729,251.283602 2.20464495,246.892426 C6.53239319,235.840441 13.1825688,226.075891 19.8025438,216.338539 C32.2814382,197.98203 44.5489283,179.495569 54.9228399,159.824427 C61.8418009,146.699251 68.5855984,133.474345 75.8488465,120.539564 C93.8876743,88.4534503 118.002866,61.8313747 148.454147,41.0903934 C177.389357,21.38903 209.139264,8.79272948 243.74917,3.53117499 C268.368712,-0.228373426 292.988254,-0.412724273 317.535314,4.23533478 C334.98825,7.55062788 351.218061,13.8155345 365.536173,24.5743708 C376.562418,32.8671368 385.329657,43.2210056 392.752968,54.7595554 C396.703209,60.8914876 400.583988,67.0989735 404.271483,73.3850352 C409.02506,81.5206496 415.566513,87.5981832 423.910943,91.9410056 C433.427157,96.9063899 442.946392,101.880841 452.17872,107.341857 C469.109185,117.33609 482.998448,130.533798 492.813648,147.744914 C499.77489,159.96949 504.262702,173.109777 507.092499,186.815205 C510.260544,202.200945 511.746414,217.755925 511.785675,238.78401" id="Fill-1" fill="#07EB00" mask="url(#mask-2)"></path>
                </g>
                <path d="M466.588459,229.728727 C466.316544,226.102796 466.044628,219.182757 465.271181,212.320033 C463.908585,200.44375 460.971902,188.956606 455.793431,178.111994 C448.503086,162.857139 437.396866,150.956723 423.172687,142.075906 C413.770469,136.196588 404.008718,130.875337 394.132159,125.849712 C381.950364,119.659686 371.998273,111.279621 364.720013,99.6687974 C360.943415,93.6446833 356.764987,87.8799952 352.529154,82.1696056 C345.589278,72.851384 337.326081,64.9026907 327.274288,58.9268419 C314.793386,51.4909674 301.146272,47.8348701 286.816348,46.4653419 C268.356337,44.7277907 250.174283,46.5256735 232.258102,51.1199278 C194.761015,60.7518739 163.327634,80.3325072 137.477575,109.002102 C124.425652,123.469629 113.31339,139.409248 102.636192,155.662591 C90.2972908,174.44383 77.9583896,193.222053 65.6315735,212.003292 C59.5406761,221.264198 53.3953957,230.482873 49.0084994,240.742268 C44.9327948,250.262601 45.4161993,259.209783 51.3227987,267.912621 C56.0601633,274.896009 61.5226348,281.242897 67.3899575,287.248912 C85.2245643,305.547498 103.17398,323.72542 121.026714,342.008923 C135.096808,356.407069 149.342136,370.60612 165.521082,382.678481 C186.117137,398.063049 208.565236,409.504944 234.155464,413.999651 C257.914798,418.18365 279.764684,413.658778 298.892398,398.705581 C306.895765,392.464273 314.125684,385.248609 321.79671,378.597046 C324.41918,376.313493 327.213862,374.17172 330.1868,372.373837 C335.498208,369.179277 341.589105,368.361783 347.60447,367.550323 C358.904052,366.042032 370.273123,364.898747 381.521342,363.013383 C394.842159,360.799212 407.338167,356.165742 418.550131,348.455359 C431.728948,339.393547 441.309422,327.266888 448.32483,313.094986 C460.790625,287.879377 466.304458,261.037831 466.588459,229.728727 M482,233.007752 C481.827787,264.874923 475.023868,295.197605 460.491519,323.640956 C452.560663,339.167303 441.850231,352.413115 427.154732,362.141591 C414.652682,370.431158 400.77595,375.12496 386.062324,377.381363 C375.336785,379.0254 364.538736,380.222983 353.740687,381.348168 C343.806723,382.391906 335.549569,386.458258 328.386118,393.378297 C321.219646,400.316436 313.953471,407.206309 306.182743,413.456667 C288.834562,427.372159 268.764209,433.206228 246.606153,431.794468 C229.194525,430.681349 212.731579,425.80052 196.821527,418.865398 C173.279725,408.578854 152.435925,394.250089 134.353573,376.096299 C122.55246,364.256215 111.3979,351.752483 99.9049563,339.580575 C86.23065,325.110031 72.5351948,310.669654 58.8276544,296.241342 C51.7699479,288.835634 44.5944116,281.541539 38.6183228,273.179574 C35.6755976,269.067972 33.1226173,264.733144 31.7902335,259.852315 C30.5515093,255.327442 30.8415521,250.751287 32.1558082,246.253563 C34.9716397,236.733231 40.1470897,228.413498 45.4736036,220.166163 C55.8819079,204.081748 66.504723,188.127046 76.7498782,171.931018 C85.1037131,158.745538 92.8351647,145.16187 101.207127,131.991473 C113.839093,112.124264 128.453016,93.8890264 146.505155,78.6009892 C173.766151,55.4849219 204.894383,40.4020122 240.034872,33.5905702 C257.177606,30.2572472 274.453276,29.0717305 291.85584,30.7700661 C309.675341,32.5076173 326.549181,37.2044354 341.513573,47.5090792 C352.653027,55.1711973 361.236479,65.2495976 368.747377,76.3204533 C373.158444,82.8121376 377.445638,89.3762199 381.950364,95.8015394 C387.053303,103.062452 393.842116,108.444034 401.576589,112.694398 C411.356467,118.072964 421.275324,123.210203 430.892054,128.851211 C444.333721,136.739573 455.796452,146.872271 464.313436,160.072834 C471.869653,171.789238 476.344167,184.67306 478.921317,198.274828 C481.093616,209.749905 481.984894,221.33358 482,233.007752" id="Fill-4" fill="#07EB00"></path>
                <path d="M437.343049,232.131923 C437.113732,229.018525 436.935709,224.775727 436.465005,220.590305 C435.025736,207.949484 431.543732,195.963957 424.908612,185.017236 C418.086418,173.777596 408.8232,164.878289 397.653026,158.207584 C387.360897,152.047222 376.637289,146.605569 366.031357,140.97669 C359.016053,137.250275 352.749048,132.750795 348.081231,126.134446 C342.981935,118.935278 337.882639,111.705913 332.394107,104.805704 C321.407991,90.9781078 307.398505,81.6499916 290.08202,77.6487763 C274.195752,73.9767176 258.312501,74.6078527 242.483562,78.0534275 C216.646124,83.6913663 194.151892,95.963773 174.04739,112.892688 C159.534009,125.116778 147.027156,139.249373 135.184116,154.007063 C119.874159,173.073986 105.629321,192.935113 91.9125166,213.176732 C86.2369097,221.532478 80.7363082,230.051291 76.9254142,239.476041 C74.6201703,245.189474 73.4675484,251.035778 76.0805604,256.975695 C77.0159343,259.092565 78.0991575,261.179236 79.3634208,263.120958 C84.4023701,270.875766 90.690496,277.606867 97.3799274,283.906139 C112.578243,298.232 127.867079,312.473306 143.346007,326.488129 C156.073126,338.017669 169.240775,349.061023 183.355868,358.875324 C198.572288,369.462691 214.690891,378.120415 233.123789,381.674702 C248.494093,384.646171 263.35145,383.290287 277.611375,376.50483 C287.158223,371.947974 295.422703,365.549049 303.584594,358.974977 C308.542075,354.976782 313.387915,350.818538 319.19025,348.016177 C326.287021,344.573622 334.005364,343.489519 341.660343,342.133636 C351.306762,340.418398 361.03465,339.044396 370.560376,336.833913 C396.633167,330.773204 415.02684,315.287746 425.777605,290.715755 C433.794663,272.391698 437.243477,253.164727 437.343049,232.131923 M453,230.005995 C452.550417,257.105546 448.19942,280.448485 437.78358,302.417422 C431.791153,315.076361 423.653401,326.086498 412.428915,334.632489 C401.826,342.704375 389.798903,347.632664 376.848502,350.133046 C367.117597,352.020412 357.235825,353.104515 347.441556,354.662724 C341.883625,355.547521 336.316643,356.462516 330.852249,357.761024 C325.445185,359.020274 320.928235,362.160851 316.716035,365.68796 C308.849843,372.304309 301.294436,379.346448 293.045043,385.449433 C274.989311,398.802923 254.655491,402.601813 232.716449,398.331837 C212.430907,394.375918 194.429487,385.346761 177.680261,373.500144 C162.524188,362.791986 148.737985,350.432005 135.401364,337.558661 C117.596071,320.391183 99.9416447,303.048557 82.3053223,285.675733 C76.1529765,279.605965 70.3506415,273.2161 65.4595416,266.035051 C62.7710962,262.091211 60.4899911,257.932967 60.0645468,253.134529 C59.8442814,250.619048 60.2123963,247.976736 60.7947419,245.506552 C62.5538481,238.07788 66.1444766,231.392076 70.2601214,225.077705 C79.4750622,210.905854 88.8137137,196.821576 98.3635786,182.864129 C107.460843,169.577075 116.663715,156.335317 126.225649,143.377419 C139.894176,124.866136 155.065336,107.707717 173.528408,93.7502705 C197.105863,75.9335383 223.317451,64.3617218 252.676119,60.3061504 C268.363244,58.1530436 283.965882,58.4942793 299.375412,62.5921277 C316.0311,67.0342316 329.796182,76.0060132 340.522807,89.4047997 C346.491096,96.863669 351.925316,104.748328 357.320311,112.639026 C362.826947,120.665615 369.821129,126.804838 378.456742,131.265061 C388.100144,136.220528 397.71639,141.233372 407.118406,146.635767 C418.315735,153.076969 428.131126,161.230389 435.786104,171.793597 C444.792849,184.204914 449.539117,198.246915 451.497367,213.306583 C452.351273,219.793081 452.677145,226.364134 453,230.005995" id="Fill-6" fill="#07EB00"></path>
                <path d="M406.979606,237.509968 C406.93728,228.474787 405.64936,219.656813 402.662353,211.122413 C397.897654,197.45048 389.248032,186.662565 377.940941,177.811406 C368.568754,170.474658 358.204928,164.766958 347.762497,159.188978 C339.826371,154.935354 332.818393,149.683183 327.176941,142.563642 C323.101551,137.438175 318.748019,132.499747 314.19495,127.805677 C300.360392,113.53341 283.414872,106.287164 263.491415,106.256891 C252.081533,106.238896 241.079794,108.555764 230.374337,112.480562 C212.373691,119.102339 196.646556,129.449808 182.328272,141.963308 C156.772433,164.311428 134.632907,189.727588 115.208293,217.514917 C110.361965,224.447419 105.824012,231.630313 103.323754,239.808735 C102.52863,242.372977 102.099323,245.217777 102.211185,247.896655 C102.425838,252.73553 104.484696,257.070607 107.550309,260.754064 C111.96733,266.06657 116.320862,271.490695 121.312308,276.242084 C142.925782,296.777134 166.507415,314.859563 191.528132,331.059537 C202.127774,337.892487 213.259514,343.714824 225.416148,347.410348 C238.086741,351.265761 250.838962,352.035034 263.709092,348.469229 C273.093373,345.871803 281.62811,341.43114 289.727494,336.197071 C301.654358,328.471161 314.113321,322.123909 328.147416,319.086037 C337.610302,317.013526 347.052025,314.772077 356.333514,312.002696 C368.293635,308.451976 378.914439,302.358131 387.264756,292.894571 C401.235362,277.080742 406.447508,258.102337 406.979606,237.509968 M423,236.668293 C422.933488,251.921006 420.118808,266.648803 414.323168,280.7642 C405.099122,303.24204 388.957796,318.244362 365.433606,324.736419 C355.459784,327.487699 345.26224,329.557193 335.052602,331.343112 C321.263393,333.738415 308.964664,339.120306 297.896413,347.639622 C290.803784,353.105982 283.293941,357.987091 275.112928,361.755018 C258.971602,369.215453 242.413063,369.686066 225.51894,364.789873 C211.560427,360.744405 198.892857,353.974807 187.077854,345.742083 C157.201739,324.947592 129.505414,301.516456 103.601897,275.98566 C98.6678935,271.119634 94.1964531,265.837296 90.5171137,259.915407 C86.4598635,253.393183 85.9731144,246.671853 88.7454679,239.579462 C92.4762032,230.019366 98.0027706,221.484966 103.795387,213.119505 C120.659278,188.828595 138.93202,165.6569 159.375482,144.243974 C174.627962,128.264224 191.367898,114.145811 211.191586,104.030632 C226.171969,96.4103088 241.911198,91.3723282 258.787182,90.2319948 C286.716301,88.3314393 309.505833,98.0906413 326.82624,120.158203 C331.107213,125.606463 335.267255,131.130141 339.469623,136.635718 C343.230591,141.562079 348.028547,145.185202 353.406973,148.156705 C364.308943,154.178148 375.416497,159.858697 385.997999,166.396005 C398.747197,174.257669 408.814741,184.876646 415.233178,198.617964 C420.850443,210.694034 422.963721,223.466974 423,236.668293" id="Fill-8" fill="#07EB00"></path>
                <path d="M246.194887,318.943642 C250.508342,318.399593 254.848983,318.027826 259.114108,317.226865 C268.390453,315.507066 276.875394,311.605025 285.106602,307.186138 C295.482455,301.63986 306.241928,297.208883 317.72031,294.434233 C324.740247,292.732568 331.708833,290.701452 338.53243,288.328794 C348.4129,284.880127 357.148553,279.506132 363.97517,271.399801 C379.434738,253.013966 380.69736,225.760131 367.167972,205.309933 C360.549779,195.317565 351.702363,187.625316 342.018233,180.806568 C334.744563,175.686462 327.268512,170.853493 320.142853,165.533903 C314.303981,161.172443 308.951431,156.170214 303.209219,151.663675 C286.106429,138.237753 266.97982,133.803754 245.762937,139.096142 C231.931486,142.556898 219.552957,149.091532 207.944688,157.17066 C187.482962,171.40661 169.664284,188.583447 153.488827,207.471016 C146.414519,215.722427 139.747995,224.312357 135.455685,234.437714 C133.247606,239.657562 132.803574,244.904613 135.123416,250.311856 C137.675845,256.257103 141.687238,261.117274 146.224219,265.505936 C165.519984,284.112414 187.555457,298.765468 211.762761,310.13307 C222.615873,315.235041 234.024781,318.511425 246.194887,318.943642 M249.813598,335.999793 C235.082,335.98749 223.806,332.581138 212.928723,327.663539 C198.728756,321.228648 185.715895,312.780776 173.008118,303.843259 C158.699408,293.805554 144.78036,283.238913 132.305171,270.913179 C127.366446,266.037895 122.723742,260.902677 119.473548,254.66727 C116.948304,249.852436 116.25658,244.823005 117.863554,239.554797 C120.512643,230.90744 125.357729,223.426766 130.634764,216.278566 C149.477435,190.729418 171.135329,167.837044 196.115914,148.190828 C208.246751,138.666948 221.374395,130.802416 236.054642,125.785075 C247.998201,121.680527 260.23174,119.918413 272.824733,121.680527 C287.447588,123.726756 299.690189,130.602932 310.244259,140.670862 C314.545632,144.760297 318.668787,149.061307 322.743613,153.380452 C328.700289,159.673285 336.025309,163.986385 343.362412,168.350868 C352.84718,174.012 362.183938,179.890752 370.378899,187.398629 C381.12931,197.233827 388.895341,208.958084 391.508184,223.414676 C396.051207,248.582989 390.481171,270.885977 371.170303,288.631043 C363.198869,295.960593 353.387873,300.122568 343.099617,303.084613 C336.384764,305.028077 329.606477,306.747876 322.816108,308.389091 C311.289396,311.203033 300.587315,315.939282 290.308121,321.830125 C281.853387,326.690296 273.232518,331.26333 263.714522,333.784091 C258.286456,335.225821 252.788915,336.014692 249.813598,335.999793" id="Fill-10" fill="#07EB00"></path>
                <path d="M246.438133,287.310715 C253.634676,287.425861 262.977503,285.101732 271.822248,281.14738 C283.727938,275.829458 295.850974,271.38422 308.532466,268.314673 C316.432363,266.411736 323.891531,263.230073 330.442076,258.196985 C341.982505,249.382264 346.555812,236.119276 342.906223,222.174502 C340.57278,213.199183 335.549689,205.848026 329.110836,199.439248 C317.503995,187.915569 304.152355,178.794802 289.472494,171.701209 C281.297898,167.758977 272.616162,165.753014 263.51181,165.809382 C251.907989,165.883311 241.161473,169.280115 230.946246,174.510162 C214.428006,182.958235 200.261321,194.521307 187.37154,207.753994 C180.929668,214.359732 174.886262,221.313938 170.708403,229.658985 C168.580231,233.901202 167.741037,238.416133 168.960585,243.073481 C170.110704,247.449025 172.598099,251.130664 175.559429,254.454744 C184.648687,264.660306 195.884229,271.95692 207.998209,277.932385 C219.294125,283.49575 231.09718,287.225871 246.438133,287.310715 M246.767169,303.997779 C232.902353,303.955357 221.80567,300.831267 211.16179,295.99514 C191.917678,287.280414 174.258376,276.129443 159.258534,261.036241 C155.886664,257.639437 152.964578,253.839622 150.875648,249.467109 C148.638803,244.79764 148.436551,239.964542 150.087772,235.116294 C152.433289,228.280264 156.520588,222.401763 161.009371,216.87173 C177.868722,196.100017 197.309048,178.225133 220.214824,164.331872 C230.786255,157.926124 242.070097,153.253625 254.440665,151.577949 C267.511567,149.826519 279.933452,152.032472 291.356153,158.513974 C298.422893,162.525899 305.160596,167.186278 311.78057,171.946651 C321.084155,178.640264 330.354534,185.418721 339.223428,192.675942 C347.337651,199.308952 353.688963,207.4934 357.610233,217.417158 C366.119904,238.916109 358.229064,261.536216 338.188019,273.062926 C330.885822,277.24757 323.037244,280.117127 314.874722,281.880677 C301.71024,284.729023 289.387971,289.634844 277.388702,295.670913 C267.1614,300.813086 256.342436,304.097775 246.767169,303.997779" id="Fill-12" fill="#07EB00"></path>
                <path d="M251.376778,257.2157 C253.584567,256.915572 258.060551,256.717488 262.279816,255.613017 C270.618677,253.410078 278.872971,250.886003 287.042699,248.130829 C291.899233,246.501134 296.644017,244.424249 301.174366,242.053239 C306.411448,239.328078 310.494802,235.255342 312.264658,229.42986 C314.309355,222.785028 312.427751,216.752458 308.573934,211.284127 C302.678441,202.907558 294.445288,197.541271 284.922496,194.047782 C275.221511,190.500271 265.251724,189.864 255.266837,192.619174 C237.522973,197.529266 223.240295,207.39447 213.210104,222.872065 C209.489178,228.607509 208.987819,234.853171 212.986606,240.762689 C214.650754,243.262754 216.80116,245.588745 219.162981,247.434532 C227.921654,254.319466 238.133059,257.104653 251.376778,257.2157 M242.590922,272 C224.985989,270.931545 207.387096,263.722473 193.509129,248.469973 C190.996296,245.702794 189.256642,242.437403 188.392856,238.715817 C187.592494,235.270348 188.06365,232.016962 189.365371,228.880626 C192.48527,221.353418 197.779737,215.347859 203.466835,209.681444 C214.786665,198.408641 227.435397,188.99663 242.379506,182.904034 C252.917096,178.630213 263.802013,176.883468 275.149025,178.732256 C283.237207,180.049818 290.703221,183.045094 297.806807,187.006782 C306.804078,192.030923 314.973806,198.111514 321.509589,206.145938 C325.583882,211.131062 328.640357,216.668422 329.643074,223.100162 C331.234736,233.403553 327.447365,241.630059 319.395426,248.019781 C313.478791,252.713782 306.502055,255.156823 299.41659,257.458804 C289.452845,260.667171 279.555544,264.04361 269.664283,267.438056 C261.781477,270.124201 253.75672,271.95198 242.590922,272" id="Fill-14" fill="#07EB00"></path>
            </g>
        </g>
    </g>
</svg>