<?xml version="1.0" encoding="UTF-8"?>
<svg width="165px" height="70px" viewBox="0 0 165 70" version="1.1" xmlns="http://www.w3.org/2000/svg" xmlns:xlink="http://www.w3.org/1999/xlink">
    <!-- Generator: Sketch 64 (93537) - https://sketch.com -->
    <title>logo</title>
    <desc>Created with Sketch.</desc>
    <defs>
        <polygon id="path-1" points="0 0.0834281773 76.9932199 0.0834281773 76.9932199 69.7618824 0 69.7618824"></polygon>
    </defs>
    <g id="Home" stroke="none" stroke-width="1" fill="none" fill-rule="evenodd">
        <g id="1" transform="translate(-81.000000, -39.000000)">
            <g id="logo" transform="translate(81.000000, 39.000000)">
                <path d="M98.8106569,32.9972879 L95.7950042,32.9972879 L95.7773197,32.8797621 C95.5001149,30.9961849 95.9439963,29.3368109 96.412194,27.579348 C96.4917743,27.2832734 96.572681,26.9781583 96.6500507,26.6725912 C97.1058692,24.8848428 97.0108149,23.3470628 96.6500507,21.7283707 C96.6173344,23.5631294 96.2808864,25.0385304 95.5819058,26.5039868 C95.3679231,26.952393 95.136698,27.4017032 94.9143152,27.8333846 C94.1534388,29.3151138 93.4341209,30.7159311 93.1883061,32.3477318 L93.1688531,32.4675177 L90.5670183,32.4675177 L90.5360704,32.3712369 C90.0360406,30.8167321 90.0793677,29.3259624 90.1244632,27.7479523 C90.135516,27.3221473 90.1487794,26.8818775 90.1501057,26.4438679 C90.1532005,24.7903701 89.7199298,23.3642396 88.9886749,21.7839695 C89.3065542,23.2684109 89.4329985,24.8929792 88.9621482,26.7449147 C88.883452,27.0513859 88.8016611,27.356501 88.722965,27.6539317 C88.260957,29.3820131 87.8254757,31.0129098 88.0942804,32.83908 L88.1172703,33 L85.1011755,33 L85.083491,32.8797621 C84.8155705,31.0472635 85.2395569,29.4416801 85.6883016,27.7389119 C85.8377357,27.1725279 85.9924753,26.5867069 86.1193617,25.9922975 C86.5398111,24.0142477 86.1193617,22.2142948 85.6516062,20.5377439 C85.1745663,18.8286474 84.7461588,16.9902725 85.1798716,14.9475835 C85.3076423,14.3468458 85.4645924,13.7587647 85.6149108,13.1878605 C86.0552553,11.5158298 86.4739363,9.93510767 86.2117633,8.16091996 L86.1892156,8 L89.0700237,8 L89.1049506,8.08995245 C89.6319493,9.46726454 89.826479,10.852713 89.7526462,12.7218254 C89.7468987,12.8841015 89.740267,13.0490896 89.7331932,13.2118177 C89.6805817,14.3961162 89.626644,15.6210968 89.9016382,16.7972589 C90.2155385,18.1379572 90.8451073,19.3719782 91.4552232,20.5671253 C92.1511091,21.9299727 92.8660058,23.332146 93.1295051,24.9169364 C93.4946904,23.7534308 93.6251137,22.5302584 93.5623337,20.9481802 C93.5561441,20.7895203 93.5503967,20.6335726 93.5433228,20.4731047 C93.4893851,19.2648489 93.434563,18.0141031 93.7206101,16.7972589 C94.0442368,15.4267272 94.6808795,14.1800495 95.2954166,12.9740539 C96.064251,11.4661074 96.8596123,9.90753431 97.0156782,8.12837435 L97.026731,8 L99.8986969,8 L99.9163814,8.12023794 C100.184744,9.95047643 99.7598734,11.5578679 99.3115709,13.2606361 C99.1616946,13.8270201 99.0065129,14.4132931 98.8809528,15.0077025 C98.4591771,16.9853002 98.8805107,18.7884174 99.347382,20.4627082 C99.8244219,22.1690925 100.254156,24.0097275 99.8195587,26.0524165 C99.6909038,26.6531542 99.5357222,27.2412353 99.3849616,27.8121395 C98.944175,29.4846222 98.5259361,31.0644403 98.7867828,32.83908 L98.8106569,32.9972879 Z" id="Fill-1" fill="#07EB00"></path>
                <path d="M111.989427,33 L111.985884,33 C110.344276,33 108.744749,32.3562347 107.705566,31.2823948 C106.689417,30.2310013 106.384661,28.7508799 106.846667,27.1068992 C107.387078,25.1127532 107.470797,23.6047982 107.120416,22.0672138 C106.997717,21.5276002 106.840909,20.9839463 106.689417,20.4578006 C106.429842,19.5532072 106.160966,18.6162908 106.048897,17.6582747 C105.85621,16.0318022 106.268605,14.4749138 106.665054,12.9692034 C107.075677,11.4217426 107.498261,9.81951228 107.251089,8.15892113 L107.227612,8 L110.245053,8 L110.262771,8.11851745 C110.517473,9.83657161 110.086916,11.4652888 109.670534,13.0414811 C109.278958,14.5193579 108.874979,16.0511062 109.060136,17.6246049 C109.170876,18.5610724 109.435323,19.4867656 109.692682,20.3810336 C109.845503,20.9121175 110.00364,21.4598118 110.127225,22.0057104 C110.57993,23.9976117 110.241952,25.7390102 109.851262,27.1814215 C109.645285,27.9015048 109.760012,28.6188946 110.162219,29.1522231 C110.563098,29.6828581 111.189442,29.9760092 111.927413,29.9760092 L111.930514,29.9760092 C112.691961,29.9760092 113.481758,29.670288 114.154613,29.1140641 C114.811965,28.5722059 115.290361,27.8611011 115.503425,27.1068992 C116.045164,25.1127532 116.126669,23.6047982 115.777174,22.0672138 C115.654031,21.5276002 115.498552,20.9839463 115.346174,20.4578006 C115.086157,19.5532072 114.81861,18.6162908 114.705212,17.6582747 C114.512082,16.0318022 114.92492,14.4749138 115.322255,12.9692034 C115.731549,11.4217426 116.155018,9.81951228 115.907847,8.15892113 L115.884813,8 L118.90181,8 L118.919529,8.11851745 C119.173787,9.83657161 118.743231,11.4652888 118.327735,13.0414811 C117.935716,14.5193579 117.529965,16.0511062 117.717337,17.6246049 C117.826305,18.5610724 118.09208,19.4867656 118.348554,20.3810336 C118.500932,20.9121175 118.659069,21.4575672 118.783097,22.0057104 C119.236245,23.9976117 118.89871,25.7390102 118.505805,27.1814215 C118.098282,28.6359539 117.232296,30.0824055 116.132427,31.1481648 C115.260683,31.9939484 113.833911,33 111.988098,33 L111.989427,33 Z" id="Fill-3" fill="#07EB00"></path>
                <path d="M130.019754,33 C128.244289,32.9629075 126.697066,32.5372708 125.419459,31.7365361 C125.286697,31.6540053 125.220316,31.6118125 125.087099,31.5283544 L125.018445,31.4866253 L125.018445,31.4036308 C125.03845,30.0724731 125.366263,28.7955632 125.671343,27.7031885 L125.741362,27.4509594 L125.913679,27.6438405 C126.26468,28.0411941 126.537479,28.3434981 126.795728,28.6240103 C127.554109,29.4358727 128.620752,29.8573365 129.964285,29.87681 L130.007933,29.87681 C130.778589,29.87681 131.588346,29.5587417 132.290803,28.9754619 C132.980074,28.4051644 133.499301,27.6285398 133.719359,26.8435694 C134.486832,24.0862044 131.997999,22.0947999 129.998385,20.4933305 C129.846072,20.3709252 129.697852,20.2522291 129.554178,20.136315 C129.468701,20.0681575 129.382769,19.9976817 129.296838,19.9281332 C128.105617,18.9646551 126.872567,17.9691847 126.020526,16.7585776 C125.032994,15.3564805 124.765197,13.9312005 125.203948,12.3978886 C125.97415,9.70682645 128.230649,7 131.067301,7 L131.116405,7 C132.835491,7.01947357 134.382714,7.44511021 135.712608,8.26485484 C135.848098,8.348313 135.914933,8.39050574 136.047241,8.47396391 L136.11635,8.51569299 L136.11635,8.59636921 C136.096344,9.93030887 135.769895,11.2062915 135.46527,12.3009844 L135.394797,12.5508952 L135.22157,12.3561595 C134.870569,11.9615878 134.59777,11.6588202 134.341794,11.3773807 C133.844846,10.8186747 132.892779,10.1496184 131.170964,10.12319 L131.140047,10.12319 C130.542164,10.12319 129.919728,10.3707825 129.382769,10.8228476 C128.862178,11.2614666 128.462074,11.8646836 128.287028,12.4767102 C127.622763,14.7949925 129.806062,16.6941294 131.253259,17.9492474 C131.598349,18.2501605 131.965718,18.5524645 132.35582,18.8723875 C133.570683,19.8729581 134.948771,21.0047436 135.872195,22.3053 C136.94202,23.8145017 137.2471,25.3232399 136.802893,26.9205364 C136.06861,29.56106 133.744365,32.515479 130.833149,32.9434339 L130.87225,33 L130.019754,33 Z" id="Fill-5" fill="#07EB00"></path>
                <path d="M145.617755,33 L142.117634,33 L142.097108,32.8824614 C141.785633,31.049764 142.278246,29.4440064 142.799082,27.7392452 C142.974063,27.1746081 143.152122,26.5864632 143.298367,25.9942497 C143.787901,24.014177 143.298367,22.2131245 142.756492,20.5391042 C142.204354,18.8298222 141.70507,16.9912479 142.209486,14.9483373 C142.358296,14.3475344 142.538921,13.7571292 142.712875,13.1884234 C143.226014,11.5162113 143.710417,9.93396141 143.406639,8.16093742 L143.380469,8 L146.88059,8 L146.903168,8.12025099 C147.21413,9.95068805 146.721517,11.5564456 146.199654,13.2589465 C146.026213,13.825844 145.847128,14.4139889 145.699857,15.0057503 C145.210322,16.9862751 145.699857,18.7873275 146.242245,20.4618 C146.795922,22.1706298 147.293667,24.0096562 146.788225,26.0521148 C146.639928,26.6529177 146.461355,27.2433229 146.286375,27.8115766 C145.772723,29.4842408 145.28832,31.0669427 145.589532,32.8399667 L145.617755,33 Z" id="Fill-7" fill="#07EB00"></path>
                <path d="M159.201679,32.9958244 L159.036255,33 C157.399402,33 155.742484,32.3240154 154.712484,31.2355735 C153.699873,30.1689376 153.4096,28.7227852 153.844341,26.9356249 C154.156016,25.7636708 154.451193,24.515164 154.364245,23.235572 C154.293349,22.2060526 154.014224,21.1899879 153.742678,20.2068641 L153.645475,19.8533293 C153.389535,18.9272721 153.125124,17.9701299 153.031934,16.988862 C152.897721,15.5826099 153.209397,14.2431676 153.541137,12.9923409 C153.937977,11.5369094 154.849817,10.0360102 156.104098,8.76476947 C157.241112,7.61090971 158.666168,6.9831766 160.117086,7.00034299 C161.79942,7.01797334 163.30964,7.43970977 164.604498,8.25348943 C164.737372,8.3370016 164.803364,8.37829373 164.933563,8.46180589 L165,8.50634571 L165,8.58521832 C164.983948,9.91074197 164.672273,11.1550732 164.354801,12.3140365 L164.285688,12.5664288 L164.116697,12.3711032 C163.76935,11.9669971 163.50271,11.6626416 163.252567,11.3787003 C162.773684,10.8238083 161.850251,10.1543191 160.16435,10.1278736 C159.415259,10.1172026 158.624255,10.4261976 157.940263,10.997328 C157.28035,11.5499002 156.781402,12.3052213 156.571834,13.0688937 C156.246782,14.291419 155.941795,15.6016321 156.071103,16.9605606 C156.16251,17.9149191 156.422908,18.8590705 156.674389,19.7716729 L156.77293,20.1279915 C157.047596,21.1236421 157.332964,22.1578011 157.404306,23.2156219 C157.49393,24.5388257 157.192064,25.8142421 156.87593,27.0061463 C156.672159,27.7415173 156.781847,28.448123 157.183146,28.9993033 C157.586229,29.5500196 158.243021,29.8682938 158.986315,29.8706136 C160.191549,29.8743252 161.385636,29.4576923 162.63635,28.597517 C163.04077,28.3080081 163.484428,27.9915898 164.029749,27.605578 L164.347221,27.3814871 L164.243775,27.7633232 C163.930316,28.9051201 163.623099,30.1248617 163.610169,31.4179084 L163.610169,31.4949252 L163.547299,31.5362173 C163.422004,31.6197295 163.358688,31.6614856 163.234731,31.7449977 C161.990259,32.5351156 160.706549,32.9345821 159.206138,32.9958244 L159.201679,32.9958244 Z" id="Fill-9" fill="#07EB00"></path>
                <path d="M93.9927176,62 L84.1055146,62 L84.088219,61.8770411 C83.8060266,59.9695547 84.2507072,58.2987062 84.7181453,56.5294905 C84.8747165,55.9411439 85.0353842,55.3295976 85.1678325,54.7124833 C85.6070514,52.6555903 85.1678325,50.7810476 84.6808231,49.0382796 C84.18289,47.262568 83.7363888,45.3481217 84.1878966,43.2258053 C84.3226207,42.6003391 84.4841987,41.9878647 84.6416802,41.3953422 C85.1032014,39.6544303 85.5374136,38.0104934 85.2665999,36.1661105 L85.2415667,36 L88.3525105,36 L88.3698062,36.1224949 C88.6642876,38.1074685 88.1913877,39.8544124 87.6920892,41.7025074 C87.6292786,41.9372892 87.5637372,42.176711 87.5004715,42.4184528 C87.0180135,44.2577318 86.9834221,45.8339252 87.3916908,47.5261176 C87.508209,48.0091371 87.6488501,48.4981886 87.7849396,48.9723923 C88.1313081,50.1862051 88.4908758,51.4417775 88.50362,52.7367895 C88.515909,54.1478005 88.124936,55.5226198 87.746252,56.8524315 C87.5619166,57.5001695 87.3721194,58.1673954 87.233299,58.8281253 L94,58.8281253 L93.9731462,58.9970197 C93.8238573,59.9802266 93.8202161,60.8539306 93.9667741,61.8329615 L93.9927176,62 Z" id="Fill-11" fill="#07EB00"></path>
                <path d="M103.619079,62 L100.117899,62 L100.097134,61.8770411 C99.7856596,59.9695547 100.277942,58.2987062 100.800105,56.5294905 C100.972809,55.9411439 101.152604,55.3295976 101.299984,54.7124833 C101.788721,52.6555903 101.299984,50.7810476 100.758069,49.0382796 C100.203998,47.262568 99.7056385,45.3481217 100.209569,43.2258053 C100.358976,42.6003391 100.539277,41.9878647 100.714513,41.3953422 C101.226547,39.6544303 101.71022,38.0104934 101.407861,36.1661105 L101.381018,36 L104.881185,36 L104.902457,36.1224949 C105.214944,38.0281253 104.721649,39.6989739 104.199992,41.4700455 C104.027288,42.0583921 103.846987,42.6685464 103.701126,43.2875167 C103.211883,45.3444097 103.699607,47.2189524 104.242029,48.9594004 C104.797112,50.736968 105.295472,52.6490943 104.790528,54.7741947 C104.641628,55.3991969 104.460314,56.0121353 104.285078,56.6046578 C103.774057,58.3427858 103.288865,59.9867226 103.59173,61.8329615 L103.619079,62 Z" id="Fill-13" fill="#07EB00"></path>
                <path d="M123.689144,62 L120.676244,62 L120.634625,61.9234407 C119.882686,60.5268136 119.459954,59.0893549 119.269164,57.2653877 C119.242977,57.0352458 119.220998,56.8 119.19902,56.5740341 C119.09474,55.496172 118.987186,54.3788703 118.651432,53.331632 C118.142658,51.7443027 117.185432,50.3351477 116.261874,48.9770322 C115.519755,47.8857143 114.757996,46.7647006 114.210876,45.537432 C114.296919,46.6700455 114.610694,47.7785313 114.916988,48.8605693 C115.321015,50.2873561 115.739538,51.7623985 115.637596,53.2968323 C115.556698,54.5166771 115.237778,55.6850183 114.930082,56.8129919 C114.473213,58.4856964 114.043467,60.0656019 114.309545,61.8329615 L114.335264,62 L111.108659,62 L111.090422,61.8742572 C110.80143,59.9695547 111.255961,58.2987062 111.737613,56.5294905 C111.897541,55.9411439 112.063547,55.3295976 112.199626,54.7124833 C112.650883,52.6555903 112.199626,50.7810476 111.697865,49.0382796 C111.18722,47.2602481 110.726611,45.3481217 111.193767,43.2258053 C111.330313,42.6003391 111.496787,41.9878647 111.658585,41.3934862 C112.132288,39.6544303 112.578869,38.0104934 112.300165,36.1661105 L112.274446,36 L115.285476,36 L115.327562,36.0765593 C116.072487,37.4592665 116.506909,38.9435888 116.695829,40.7434282 C116.717808,40.9564022 116.739318,41.1730882 116.759894,41.3842063 C116.866044,42.4820202 116.975936,43.6164897 117.314496,44.6832158 C117.821868,46.2705452 118.780029,47.6750602 119.706392,49.0341037 C120.453187,50.1314536 121.221493,51.2598911 121.76721,52.4978317 C121.687714,51.3517623 121.372068,50.2302846 121.065307,49.1389667 C120.664553,47.7168198 120.250706,46.2464174 120.35031,44.7161595 C120.431209,43.4893549 120.751999,42.3168377 121.062969,41.1846881 C121.523111,39.5119836 121.95613,37.9316142 121.691923,36.1661105 L121.666671,36 L124.893276,36 L124.911981,36.1224949 C125.197231,38.0304453 124.73896,39.7003658 124.255437,41.4700455 C124.094107,42.0602481 123.927165,42.6685464 123.792022,43.2875167 C123.337491,45.3444097 123.785475,47.2189524 124.283494,48.9612564 C124.792269,50.736968 125.249605,52.6490943 124.780111,54.7741947 C124.643565,55.3991969 124.474285,56.0121353 124.313422,56.6046578 C123.836914,58.3427858 123.387527,59.9867226 123.66436,61.8357455 L123.689144,62 Z" id="Fill-15" fill="#07EB00"></path>
                <path d="M144.496728,62 L141.097086,62 L141.054813,61.9317926 C140.022906,60.2196484 139.563243,58.5186401 139.19124,56.4881949 C138.810783,54.411814 138.263458,52.8727403 137.376614,51.4046578 C137.114966,52.2031944 136.796361,52.9256358 136.38787,53.6522531 C136.254821,54.6577318 136.006078,55.6316588 135.764899,56.5740341 C135.31458,58.3321139 134.888735,59.9960025 135.154387,61.8329615 L135.179306,62 L132.102274,62 L132.085365,61.8770411 C131.811703,59.9695547 132.244223,58.2987062 132.700771,56.5294905 C132.854734,55.9411439 133.010922,55.3295976 133.140411,54.7124833 C133.569816,52.6555903 133.140411,50.7810476 132.663838,49.0382796 C132.178811,47.262568 131.739616,45.3481217 132.184595,43.2258053 C132.314084,42.6003391 132.472497,41.9878647 132.626015,41.3953422 C133.077224,39.6544303 133.501734,38.0104934 133.236082,36.1661105 L133.212498,36 L136.28775,36 L136.307329,36.1224949 C136.583216,38.0411172 136.184515,39.7379495 135.633185,41.7549389 C135.10099,43.7023289 134.962601,45.1815472 135.185091,46.6960293 C135.892608,44.6748639 137.155904,42.9956634 138.378708,41.3665745 C139.595281,39.7490854 140.852793,38.0782368 141.539396,36.0965111 L141.573659,36 L145,36 L144.933253,36.1934862 C144.221286,38.2452753 142.920612,39.9351477 141.66399,41.5711966 C141.534946,41.737771 141.407237,41.9062015 141.279973,42.0737039 C140.147945,43.5547783 138.907788,45.3926653 138.282147,47.7915232 C138.486393,48.0768805 138.695088,48.3622379 138.898443,48.6406353 C140.254295,50.5003302 141.65598,52.4249844 142.225999,54.8024984 C142.361718,55.3704292 142.481417,55.935112 142.593552,56.4812349 C142.979794,58.3321139 143.344232,60.0809137 144.36279,61.780066 L144.496728,62 Z" id="Fill-17" fill="#07EB00"></path>
                <g id="Group-21">
                    <mask id="mask-2" fill="white">
                        <use xlink:href="#path-1"></use>
                    </mask>
                    <g id="Clip-20"></g>
                    <path d="M74.6674578,35.3424048 C74.658371,33.0160411 74.4857221,30.9387684 74.0709105,28.8869502 C73.6470121,26.8014957 72.940969,24.8192229 71.8005778,23.0078593 C70.5125263,20.9587684 68.7914897,19.3442229 66.731516,18.110132 C65.2049365,17.1955866 63.6224732,16.3746775 62.0572749,15.5274048 C60.814203,14.8564957 59.7796727,13.9687684 59.0132026,12.7728593 C58.2362827,11.5619502 57.4652692,10.3455866 56.6483674,9.16013203 C55.3975717,7.34558658 53.8564533,5.82740476 51.9359618,4.71785931 C49.838278,3.50695022 47.5534064,2.88831385 45.1676716,2.61058658 C42.0540854,2.24558658 38.9564011,2.39740476 35.8859772,3.00195022 C28.0495357,4.53922294 21.6197281,8.44195022 16.5706572,14.6174048 C14.5992797,17.0278593 13.0245402,19.7010411 11.5443033,22.430132 C9.72876407,25.7733139 7.73103486,29.0014957 5.57928468,32.1360411 C4.6742411,33.450132 3.79100581,34.7837684 3.13584877,36.2474048 C2.84961511,36.8928593 2.62562591,37.5614957 2.60290895,38.2687684 C2.57065087,39.2883139 2.9795561,40.1742229 3.52748911,41.0014957 C4.38573575,42.3028593 5.46161084,43.4169502 6.52112972,44.550132 C8.56156681,46.7305866 10.6229035,48.8933139 12.6265391,51.110132 C14.2530733,52.910132 15.7791984,54.8024048 17.4020979,56.6069502 C20.2667062,59.7955866 23.5797472,62.4187684 27.4334518,64.3264957 C30.6170062,65.9005866 33.9354993,67.0269502 37.510694,67.2596775 C41.2340033,67.500132 44.5838458,66.5083139 47.4888903,64.1524048 C48.6197404,63.2405866 49.6651747,62.2192229 50.7419585,61.2405866 C51.4157435,60.6296775 52.0995239,60.0214957 52.9968437,59.7828593 C53.7056127,59.5910411 54.4361901,59.4560411 55.1658588,59.3637684 C56.9041603,59.1442229 58.652003,58.9887684 60.3625899,58.5828593 C62.8641812,57.9914957 65.1345139,56.9374048 67.0790854,55.2283139 C68.7078912,53.7964957 69.9764061,52.0824048 70.9773153,50.1687684 C73.4452855,45.4528593 74.6411061,40.4214957 74.6674578,35.3424048 M76.9932199,35.8883139 C76.9550554,41.4019502 75.4157544,47.3128593 72.1913095,52.7592229 C70.7428763,55.2069502 68.8732707,57.2774048 66.4507344,58.8105866 C64.4330143,60.0878593 62.2199283,60.8533139 59.8864424,61.2855866 C58.6715396,61.5110411 57.450276,61.7242229 56.2240146,61.8705866 C54.5961175,62.0642229 53.2617234,62.7933139 52.0677201,63.8810411 C50.6438213,65.1778593 49.189936,66.4419502 47.5338698,67.4487684 C45.333051,68.790132 42.9491335,69.5428593 40.3793913,69.7169502 C37.33123,69.9255866 34.386658,69.390132 31.5006958,68.4742229 C25.0554407,66.4287684 19.6619808,62.7910411 15.2730646,57.6642229 C13.8096383,55.9528593 12.4189061,54.1810411 11.0036397,52.4287684 C8.89777778,49.8224048 6.58291984,47.4055866 4.25897513,44.9946775 C3.01181418,43.6987684 1.76419889,42.3996775 0.781008987,40.8819502 C0.437074256,40.3524048 0.150840595,39.7914957 0.0436165577,39.1637684 C-0.0799636892,38.4519502 0.0717855846,37.7683139 0.331667574,37.1078593 C0.982735566,35.4455866 1.98319036,33.9769502 2.97910176,32.5124048 C4.8564311,29.7514957 6.7019567,26.9710411 8.26261166,24.0124048 C9.30350263,22.0383139 10.3180419,20.0492229 11.4107276,18.1037684 C14.1244953,13.2778593 17.7523933,9.2737684 22.3334949,6.15422294 C26.6865182,3.19104113 31.4629857,1.29649567 36.6697122,0.505132035 C40.3734849,-0.0603225108 44.0772576,-0.0880497835 47.7701262,0.611041126 C50.3957521,1.10967749 52.8373706,2.05195022 54.9913925,3.67013203 C56.6501847,4.91740476 57.9691313,6.47467749 59.0858969,8.21013203 C59.6801725,9.13240476 60.2639983,10.0660411 60.8187464,11.0114957 C61.5338762,12.235132 62.5179748,13.1492229 63.7733138,13.8024048 C65.2049365,14.5492229 66.6370134,15.2974048 68.0259282,16.1187684 C70.5729534,17.6219502 72.6624592,19.6069502 74.1390614,22.1955866 C75.1863131,24.0342229 75.8614611,26.0105866 76.2871768,28.0719502 C76.7637786,30.3860411 76.9873135,32.7255866 76.9932199,35.8883139" id="Fill-19" fill="#07EB00" mask="url(#mask-2)"></path>
                </g>
                <path d="M70.6763086,34.8102578 C70.6353103,34.269074 70.5943121,33.2362324 70.4776947,32.2119452 C70.2722478,30.4393657 69.8294664,28.7248666 69.0486769,27.1062678 C67.9494675,24.8294238 66.2749155,23.0532423 64.13025,21.7277472 C62.7126205,20.850237 61.2407823,20.0560205 59.7516337,19.3059272 C57.9149108,18.3820427 56.4143737,17.1312868 55.3169864,15.398328 C54.7475659,14.4992065 54.117559,13.6388053 53.4788969,12.7865083 C52.4325297,11.395729 51.1866375,10.2093568 49.6710678,9.31743908 C47.7892467,8.20760707 45.7315886,7.66192091 43.5709793,7.45751372 C40.7876516,7.19817772 38.0462333,7.46651844 35.3449022,8.15222803 C29.6912395,9.58983193 24.9518383,12.5123145 21.0542685,16.7913585 C19.0863511,18.9506909 17.4108881,21.3297385 15.8010223,23.7556106 C13.9406115,26.5587806 12.0802006,29.3615004 10.221612,32.1646704 C9.3032505,33.5468953 8.37668938,34.9228168 7.71525047,36.4540699 C7.10073181,37.875015 7.17361764,39.2104153 8.06419138,40.5093465 C8.77847252,41.5516431 9.60208241,42.4989399 10.4867342,43.3953599 C13.1757658,46.1264922 15.8821078,48.839615 18.5738726,51.568496 C20.6953058,53.717473 22.8431601,55.8367344 25.2825578,57.6385793 C28.3879497,59.9347834 31.7725855,61.642529 35.6309791,62.3133808 C39.2133177,62.9378583 42.5077572,62.2625041 45.3917584,60.0306837 C46.5984745,59.0991452 47.6885732,58.0221804 48.8451802,57.0294098 C49.2405858,56.6885811 49.661957,56.3689134 50.1102049,56.1005727 C50.911038,55.6237727 51.8293994,55.5017587 52.7363725,55.3806452 C54.4400788,55.1555271 56.1542624,54.9848876 57.8502246,54.7034901 C59.8586847,54.3730168 61.7427835,53.6814541 63.4332792,52.5306506 C65.4203292,51.1781413 66.8648352,49.3681922 67.9225908,47.2529829 C69.8021342,43.4894593 70.6334882,39.4832584 70.6763086,34.8102578 M73,35.2996645 C72.9740344,40.0559587 71.9481664,44.5817321 69.7570361,48.8270084 C68.5612529,51.1443736 66.9463762,53.1213604 64.730647,54.5733718 C62.8456372,55.8106207 60.7533583,56.511188 58.5348958,56.8479647 C56.9177415,57.0933433 55.2896542,57.2720871 53.661567,57.4400251 C52.1637632,57.5958068 50.9187821,58.2027251 49.8387052,59.2355667 C48.7581727,60.2711098 47.6626076,61.2994491 46.4909679,62.2323383 C43.8752776,64.3092775 40.8491491,65.1800341 37.5082448,64.9693236 C34.8829883,64.8031865 32.4007702,64.0747044 30.0019153,63.0396116 C26.4523754,61.5043065 23.3096295,59.365685 20.5832439,56.6561641 C18.8039185,54.8889873 17.122078,53.0227587 15.3892174,51.206056 C13.3274594,49.0462734 11.2625127,46.8909931 9.1957439,44.7375138 C8.13161077,43.6321841 7.04971173,42.5435132 6.14866065,41.2954587 C5.70496815,40.6817869 5.32003986,40.0347976 5.11914829,39.3063156 C4.93237835,38.6309614 4.97610985,37.9479533 5.1742682,37.2766512 C5.59882816,35.8557061 6.37916209,34.6139549 7.18227283,33.3830094 C8.75159587,30.9823504 10.353262,28.6010516 11.8979861,26.183734 C13.1575443,24.2157519 14.3232621,22.1883387 15.5855536,20.2226079 C17.4901514,17.2573529 19.6935812,14.5356756 22.4154114,12.253879 C26.5257167,8.80371968 31.2191087,6.55253914 36.517453,5.535906 C39.1021668,5.0383951 41.7069242,4.86145231 44.3308141,5.11493524 C47.017568,5.37427124 49.561739,6.07528886 51.818011,7.61329541 C53.4975739,8.75689513 54.7917529,10.261134 55.9242165,11.9135005 C56.5892997,12.8824086 57.2357059,13.8621224 57.9149108,14.8211253 C58.6843118,15.9048436 59.7079022,16.7080648 60.8740755,17.3424475 C62.3486469,18.1452185 63.8441731,18.9119706 65.2941456,19.7539121 C67.3208272,20.9312795 69.0491324,22.4436226 70.3332897,24.4138558 C71.4725863,26.1625729 72.1472358,28.0855313 72.5358084,30.1156459 C72.8633391,31.8283441 72.9977223,33.5572507 73,35.2996645" id="Fill-22" fill="#07EB00"></path>
                <path d="M66.6096258,34.8936308 C66.5746155,34.4279905 66.5474365,33.7934371 66.4755733,33.1674649 C66.2558376,31.2769023 65.7242338,29.4843455 64.7112385,27.8471526 C63.6696821,26.1661507 62.2554504,24.8351693 60.5500803,23.8374979 C58.9787629,22.9161535 57.3415708,22.1022992 55.7223445,21.2604434 C54.6513058,20.7031203 53.6945112,20.0301776 52.9818674,19.0406356 C52.2033489,17.9639273 51.4248304,16.8827025 50.5868866,15.8507064 C48.9096169,13.7826496 46.7707641,12.3875354 44.127026,11.7891132 C41.7016415,11.2399196 39.2767177,11.3343123 36.8600858,11.8496329 C32.9154387,12.6928436 29.4812049,14.5283062 26.4118152,17.0601968 C24.1960319,18.8884331 22.2865887,21.0021056 20.478491,23.2092674 C18.141093,26.0609187 15.9663085,29.0313511 13.8721399,32.0586902 C13.0056351,33.3083764 12.1658486,34.5824512 11.5840327,35.9920178 C11.2320871,36.8465196 11.0561143,37.7208935 11.4550474,38.6092682 C11.5978526,38.9258675 11.7632301,39.2379503 11.9562474,39.5283544 C12.7255527,40.6881645 13.6855719,41.6948687 14.7068591,42.6369885 C17.0272127,44.7795659 19.3613861,46.9094974 21.7245812,49.005556 C23.6676528,50.7299152 25.6779809,52.3815606 27.8329569,53.8493887 C30.1560744,55.4328365 32.6169299,56.7276867 35.4311129,57.2592663 C37.7777242,57.7036795 40.0460229,57.5008934 42.2231107,56.4860596 C43.6806447,55.8045357 44.9423974,54.8475118 46.1884876,53.8642928 C46.9453549,53.2663222 47.6851778,52.6444147 48.5710305,52.2252933 C49.6545071,51.7104244 50.83288,51.5482859 52.001579,51.3454998 C53.4743148,51.0889686 54.9594885,50.8834726 56.4137979,50.5528726 C60.3943766,49.6464323 63.2025711,47.3304254 64.8439091,43.6554354 C66.0678875,40.9148875 66.594424,38.0392993 66.6096258,34.8936308 M69,34.5756766 C68.9313614,38.6286887 68.2670871,42.1198614 66.6768825,45.4055382 C65.7620081,47.2988106 64.5196032,48.9454879 62.8059412,50.2236275 C61.1871756,51.4308596 59.3509776,52.1679351 57.3738171,52.5418926 C55.8881828,52.8241672 54.3795153,52.9863058 52.8842071,53.2193517 C52.035668,53.351682 51.185747,53.4885288 50.3514884,53.6827337 C49.5259824,53.8710674 48.8363717,54.3407724 48.1932878,54.8682872 C46.9923425,55.8578292 45.8388453,56.9110523 44.5793959,57.8238155 C41.8227956,59.820965 38.7183956,60.3891274 35.3689235,59.7505093 C32.2718942,59.1588617 29.5235858,57.8084598 26.966452,56.0366784 C24.6525477,54.435165 22.5477839,52.5866049 20.5116587,50.661266 C17.7932933,48.093696 15.097961,45.4999308 12.4053927,42.9016492 C11.4661033,41.993854 10.5802506,41.038185 9.83351781,39.9641865 C9.42306813,39.3743454 9.0748078,38.7524379 9.00985448,38.0347829 C8.97622617,37.6585673 9.03242691,37.2633828 9.12133464,36.8939417 C9.38990048,35.7829088 9.93808804,34.7829791 10.5664308,33.8386011 C11.9732919,31.7190573 13.3990403,29.6126111 14.8570349,27.5251337 C16.2459303,25.5379203 17.6509488,23.5574814 19.1107861,21.6194967 C21.1975841,18.8509471 23.5137917,16.2847319 26.3325814,14.1972545 C29.9321928,11.532582 33.933962,9.80189974 38.4162014,9.195348 C40.8111822,8.8733291 43.1932645,8.92436435 45.5458644,9.53723904 C48.0887176,10.2016006 50.1902568,11.5434213 51.8279095,13.5473454 C52.7390986,14.6628948 53.5687505,15.8421253 54.3924138,17.0222591 C55.2331217,18.2227166 56.3009357,19.1408996 57.6193499,19.807971 C59.091625,20.5491113 60.5597542,21.2988327 61.9951764,22.1068156 C63.7046924,23.0701625 65.2032253,24.2895889 66.3719243,25.8694236 C67.7469999,27.7256616 68.4716209,29.8257849 68.7705904,32.0781106 C68.9009577,33.0482321 68.9507092,34.0309995 69,34.5756766" id="Fill-24" fill="#07EB00"></path>
                <path d="M61.568333,36.2856786 C61.5619086,34.9206513 61.3664207,33.5884393 60.9130357,32.2990696 C60.1898225,30.2335258 58.8769334,28.6036968 57.1606786,27.2664714 C55.7381144,26.1580418 54.1650338,25.2957274 52.5800219,24.453011 C51.3754313,23.8103771 50.3117204,23.0168838 49.4554286,21.9412696 C48.8368426,21.1669186 48.1760386,20.4208252 47.4849477,19.711649 C45.3850595,17.5554072 42.8129717,16.4606507 39.7888756,16.4560771 C38.0570184,16.4533584 36.3871116,16.8033888 34.7621762,17.3963439 C32.0299352,18.3967563 29.6427808,19.960043 27.4694698,21.8505716 C23.5904585,25.2269063 20.2299948,29.0667578 17.2816159,33.2648435 C16.5460125,34.3122001 15.8572161,35.3973854 15.4777127,36.6329744 C15.3570242,37.0203778 15.2918616,37.4501677 15.3088406,37.8548903 C15.3414219,38.5859434 15.6539271,39.240883 16.1192433,39.7973766 C16.789684,40.5999854 17.450488,41.4194575 18.2081182,42.1372933 C21.4887347,45.239711 25.0680897,47.9715887 28.8658772,50.4190667 C30.4747514,51.4513829 32.1643905,52.3310165 34.0095939,52.8893332 C35.9328089,53.4718056 37.8684139,53.5880267 39.8219158,53.049308 C41.2463155,52.6568912 42.5417667,51.9859996 43.7711375,51.1952409 C45.5814651,50.0280172 47.4725577,49.0690798 49.6027328,48.6101207 C51.0390637,48.2970076 52.4721824,47.9583714 53.8809798,47.5399757 C55.6963553,47.0035359 57.3084417,46.0828831 58.5759005,44.6531366 C60.6964389,42.263997 61.4875681,39.3967559 61.568333,36.2856786 M64,36.1585192 C63.9899044,38.4628858 63.5626762,40.6879487 62.6829809,42.8204906 C61.2829024,46.2164233 58.8328798,48.4829612 55.2622437,49.4637755 C53.7483601,49.8794366 52.2005185,50.1920939 50.6508414,50.461909 C48.5578365,50.8237894 46.6910651,51.6368808 45.0110627,52.9239716 C43.9345029,53.7498246 42.794616,54.4872584 41.5528551,55.0565135 C39.1028325,56.1836295 36.5894828,56.2547295 34.0251962,55.5150168 C31.9064934,54.903831 29.9837373,53.881086 28.1903886,52.6372931 C23.6556212,49.4956793 19.4517146,45.9557236 15.5199308,42.0985529 C14.7710196,41.363398 14.0923188,40.5653469 13.5338476,39.6706729 C12.918015,38.685301 12.8441334,37.6698482 13.2649371,36.598336 C13.8312094,35.1540049 14.6700634,33.8646352 15.5492998,32.6007885 C18.1089976,28.9309388 20.8825388,25.4301792 23.9855643,22.1951328 C26.3006727,19.7809259 28.8415559,17.6479282 31.8505086,16.1197357 C34.1243168,14.9684639 36.5133068,14.2073302 39.0748401,14.0350496 C43.3140814,13.7479153 46.7732068,15.2223271 49.4021971,18.5562753 C50.0519877,19.3793936 50.6834227,20.2139062 51.3212821,21.0456841 C51.8921433,21.7899544 52.6204044,22.3373326 53.4367727,22.7862648 C55.091536,23.6959792 56.777504,24.5541917 58.3836249,25.5418425 C60.318771,26.7295758 61.8468803,28.3338817 62.8211073,30.4099083 C63.673728,32.2343505 63.9944933,34.1640752 64,36.1585192" id="Fill-26" fill="#07EB00"></path>
                <path d="M36.6600914,48.3820474 C37.3164868,48.2985422 37.9770191,48.2414803 38.6260599,48.1185421 C40.0376776,47.8545729 41.3288643,47.255655 42.5814394,46.5774072 C44.1603736,45.7261181 45.7976847,45.0460146 47.5443951,44.6201381 C48.6126463,44.3589524 49.6730833,44.0471996 50.7114567,43.6830241 C52.2150065,43.1536939 53.544345,42.3288481 54.583178,41.0846206 C56.935721,38.2626087 57.1278592,34.079462 55.0690393,30.9405943 C54.0619229,29.4068821 52.7155769,28.2262113 51.241905,27.1796128 C50.1350423,26.3937361 48.9973823,25.6519315 47.9130429,24.8354362 C47.0245189,24.1660029 46.2100003,23.3982189 45.3361855,22.7065175 C42.7335871,20.6457947 39.8230161,19.9652273 36.59436,20.7775473 C34.489574,21.3087332 32.6058848,22.3117235 30.8394091,23.5517757 C27.7256681,25.7368285 25.0141302,28.3732733 22.5526476,31.2722955 C21.4761224,32.5387911 20.4616515,33.8572454 19.8084737,35.41137 C19.4724618,36.212556 19.4048917,37.0179173 19.7579111,37.8478662 C20.1463243,38.7603925 20.7567536,39.5063723 21.4471638,40.1799809 C24.3834758,43.0358588 27.7367,45.2849323 31.4204201,47.0297271 C33.0719807,47.8128203 34.8081188,48.3157072 36.6600914,48.3820474 M37.2107648,50.9999682 C34.969,50.9980798 33.253087,50.4752445 31.5978491,49.7204502 C29.4369846,48.7327692 27.4567667,47.436119 25.5229745,46.0643141 C23.3455621,44.5236432 21.227446,42.9017866 19.3290477,41.0099299 C18.5775026,40.2616305 17.8710043,39.4734341 17.3764094,38.5163717 C16.9921332,37.7773507 16.8868709,37.0053915 17.1314103,36.1967828 C17.5345327,34.869514 18.2718283,33.7213175 19.0748554,32.6241519 C21.9422183,28.7026549 25.2379849,25.1889416 29.0393781,22.173476 C30.8853752,20.711671 32.8830602,19.5045569 35.1170108,18.7344534 C36.9345088,18.1044531 38.7961343,17.833989 40.7124594,18.1044531 C42.9376764,18.4185254 44.8006809,19.4739384 46.406735,21.0192485 C47.0612918,21.6469293 47.6887285,22.3070843 48.3088107,22.9700228 C49.2152614,23.9358996 50.3299384,24.5979103 51.446454,25.2678076 C52.8897883,26.1367256 54.3105993,27.0390457 55.5576585,28.1914175 C57.1935906,29.701006 58.3753781,31.5005431 58.7729845,33.7194618 C59.464314,37.5825052 58.6166999,41.0057546 55.6780896,43.7294159 C54.4650452,44.8544165 52.9720676,45.4932313 51.4064635,45.9478708 C50.384638,46.2461699 49.3531596,46.5101391 48.3198425,46.7620465 C46.5657776,47.1939539 44.9372001,47.9209131 43.372975,48.8250889 C42.086385,49.5710687 40.7745136,50.2729763 39.326123,50.6598837 C38.5001129,50.8811725 37.6635305,51.0022551 37.2107648,50.9999682" id="Fill-28" fill="#07EB00"></path>
                <path d="M37.7076427,43.4911533 C38.7939133,43.5084628 40.2041515,43.1590839 41.5392072,42.5646388 C43.3362926,41.7652126 45.1661847,41.0969743 47.0803722,40.6355391 C48.2728094,40.3494766 49.3987217,39.8711874 50.3874831,39.1145795 C52.1294348,37.7894907 52.8197452,35.7957081 52.2688638,33.6994349 C51.916646,32.3502039 51.1584437,31.2451281 50.1865413,30.2817171 C48.4345654,28.5493992 46.4192235,27.1783035 44.2033954,26.1119464 C42.969494,25.5193233 41.6590433,25.2177734 40.2848016,25.226247 C38.5332813,25.2373605 36.9111657,25.7479911 35.3692446,26.5342074 C32.8759254,27.8041791 30.7375579,29.5424186 28.7919305,31.5316461 C27.8195725,32.5246656 26.9073603,33.5700691 26.2767401,34.8245533 C25.9555065,35.4622722 25.8288357,36.1409873 26.0129185,36.8411116 C26.1865213,37.4988731 26.5619773,38.052322 27.0089704,38.5520203 C28.3809338,40.0861898 30.0768648,41.1830663 31.90539,42.081339 C33.6104339,42.9176618 35.3920272,43.4783989 37.7076427,43.4911533 M37.7573086,45.9996662 C35.6645061,45.993289 33.9895351,45.5236546 32.3829117,44.796655 C29.4781401,43.4865982 26.812585,41.8103084 24.548458,39.5413957 C24.0394964,39.030765 23.5984268,38.4595511 23.2831167,37.8022451 C22.9454797,37.1002988 22.9149512,36.3737547 23.1641919,35.6449331 C23.5182323,34.6172946 24.135183,33.7335984 24.8127352,32.9022863 C27.3575429,29.7797412 30.2919318,27.092667 33.7494073,25.0041376 C35.3450952,24.041182 37.0483165,23.3387802 38.915572,23.0868812 C40.8885384,22.8235944 42.76354,23.1552082 44.4877212,24.1295516 C45.5543989,24.7326515 46.5714107,25.4332313 47.5706521,26.148843 C48.9749668,27.1550723 50.3742693,28.1740561 51.7129703,29.2650109 C52.9377587,30.26213 53.8964472,31.492472 54.4883371,32.9842787 C55.7728157,36.2161471 54.5817454,39.6165554 51.5566822,41.3493288 C50.4544638,41.9783929 49.2697726,42.4097642 48.0376938,42.6748731 C46.0506023,43.1030558 44.1906372,43.8405322 42.3794267,44.7479151 C40.835683,45.5209215 39.2026318,46.0146981 37.7573086,45.9996662" id="Fill-30" fill="#07EB00"></path>
                <path d="M38.372622,38.6408032 C38.6991261,38.5929104 39.3610674,38.5613012 39.9850432,38.3850559 C41.218255,38.0335231 42.4389605,37.6307451 43.6471597,37.1910897 C44.3653795,36.9310321 45.067073,36.5996142 45.7370541,36.2212615 C46.5115522,35.7863954 47.1154285,35.1364908 47.3771678,34.2068925 C47.6795525,33.146547 47.4012871,32.1839028 46.8313565,31.3112969 C45.9594878,29.9746103 44.7419088,29.1182879 43.3336086,28.5608163 C41.8989558,27.9947241 40.4245508,27.8931914 38.9479124,28.3328469 C36.3238199,29.1163722 34.2115929,30.6906069 32.7282548,33.1604359 C32.177977,34.0756664 32.1038324,35.0723145 32.6952024,36.0153227 C32.9413087,36.4142693 33.2593264,36.7854381 33.6086099,37.0799785 C34.9039066,38.1786382 36.414044,38.6230829 38.372622,38.6408032 M37.0733054,41 C34.4697589,40.8295018 31.8671057,39.679118 29.8147304,37.2452085 C29.4431142,36.8036373 29.1858414,36.2825642 29.0580984,35.6886942 C28.9397351,35.1388854 29.0094131,34.619728 29.201921,34.1192488 C29.6633146,32.9180986 30.4462992,31.9597647 31.2873488,31.0555496 C32.9614082,29.256698 34.8319953,27.7547814 37.0420396,26.7825586 C38.6004156,26.1005658 40.2101568,25.82183 41.8882361,26.1168494 C43.0843756,26.3270985 44.1885045,26.8050682 45.2390348,27.4372525 C46.5696172,28.2389771 47.7778164,29.2092842 48.7443758,30.491373 C49.3469121,31.2868716 49.798926,32.1704928 49.9472152,33.1968344 C50.1826019,34.8409925 49.6224977,36.1537327 48.431718,37.1733694 C47.5567227,37.922412 46.5249518,38.3122589 45.4771014,38.6795963 C44.0035897,39.1915698 42.5399043,39.7303632 41.0771123,40.2720302 C39.9113452,40.7006703 38.7245854,40.9923372 37.0733054,41" id="Fill-32" fill="#07EB00"></path>
            </g>
        </g>
    </g>
</svg>